ISO-10303-21;
HEADER;
FILE_DESCRIPTION(('STEP AP214'),'1');
FILE_NAME('TO-92_MC_MCH','2026-10-05T04:11:51',(''),(''),'','','');
FILE_SCHEMA(('AUTOMOTIVE_DESIGN'));
ENDSEC;
DATA;
#1=SHAPE_DEFINITION_REPRESENTATION(#2,#3);
#2=PRODUCT_DEFINITION_SHAPE('',$,#4);
#3=SHAPE_REPRESENTATION('',(#188,#355,#949,#1543,#19),#11);
#4=PRODUCT_DEFINITION('design','example product_definition',#6,#5);
#5=PRODUCT_DEFINITION_CONTEXT('3D Mechanical Parts',#10,'design');
#6=PRODUCT_DEFINITION_FORMATION('1.0','first version',#8);
#7=APPLICATION_PROTOCOL_DEFINITION('international standard','automotive_design',2003,#10);
#8=PRODUCT('product','part','',(#9));
#9=PRODUCT_CONTEXT('3D Mechanical Parts',#10,'mechanical');
#10=APPLICATION_CONTEXT('Core Data for Automotive Mechanical Design Process');
#11=(GEOMETRIC_REPRESENTATION_CONTEXT(3) GLOBAL_UNCERTAINTY_ASSIGNED_CONTEXT((#12)) GLOBAL_UNIT_ASSIGNED_CONTEXT((#13,#14,#18)) REPRESENTATION_CONTEXT('ID1','3D'));
#12=UNCERTAINTY_MEASURE_WITH_UNIT(LENGTH_MEASURE(1.E-005),#13,'DISTANCE_ACCURACY_VALUE','Maximum model space distance between geometric entities at asserted connectivities');
#13=(LENGTH_UNIT() NAMED_UNIT(*) SI_UNIT(.MILLI.,.METRE.));
#14=(CONVERSION_BASED_UNIT('degree',#16) NAMED_UNIT(#15) PLANE_ANGLE_UNIT());
#15=DIMENSIONAL_EXPONENTS(0.,0.,0.,0.,0.,0.,0.);
#16=MEASURE_WITH_UNIT(PLANE_ANGLE_MEASURE(0.01745329252),#17);
#17=(NAMED_UNIT(*) PLANE_ANGLE_UNIT() SI_UNIT($,.RADIAN.));
#18=(NAMED_UNIT(*) SI_UNIT($,.STERADIAN.) SOLID_ANGLE_UNIT());
#19=AXIS2_PLACEMENT_3D('',#20,#21,#22);
#20=CARTESIAN_POINT('',(0.0,0.0,0.0));
#21=DIRECTION('',(0.0,0.0,1.0));
#22=DIRECTION('',(1.0,0.0,0.0));
#25=MECHANICAL_DESIGN_GEOMETRIC_PRESENTATION_REPRESENTATION($,(#190,#239,#292,#323,#357,#388,#419,#472,#525,#578,#631,#684,#737,#790,#843,#896,#951,#982,#1013,#1066,#1119,#1172,#1225,#1278,#1331,#1384,#1437,#1490,#1545,#1576,#1607,#1660,#1713,#1766,#1819,#1872,#1925,#1978,#2031,#2084),#11);
#26=PRODUCT_CATEGORY_RELATIONSHIP('','',#27,#28);
#27=PRODUCT_CATEGORY('part','');
#28=PRODUCT_RELATED_PRODUCT_CATEGORY('','',(#8));
#34=PRESENTATION_STYLE_ASSIGNMENT((#35,#40));
#35=SURFACE_STYLE_USAGE(.BOTH.,#36);
#36=SURFACE_SIDE_STYLE('',(#37));
#37=SURFACE_STYLE_FILL_AREA(#38);
#38=FILL_AREA_STYLE('',(#39));
#39=FILL_AREA_STYLE_COLOUR('',#41);
#40=CURVE_STYLE('',#42,POSITIVE_LENGTH_MEASURE(0.1),#41);
#41=COLOUR_RGB('Aluminum',0.725,0.725,0.725);
#42=DRAUGHTING_PRE_DEFINED_CURVE_FONT('continuous');
#43=PRESENTATION_STYLE_ASSIGNMENT((#44,#49));
#44=SURFACE_STYLE_USAGE(.BOTH.,#45);
#45=SURFACE_SIDE_STYLE('',(#46));
#46=SURFACE_STYLE_FILL_AREA(#47);
#47=FILL_AREA_STYLE('',(#48));
#48=FILL_AREA_STYLE_COLOUR('',#50);
#49=CURVE_STYLE('',#51,POSITIVE_LENGTH_MEASURE(0.1),#50);
#50=COLOUR_RGB('Black',0.196,0.196,0.196);
#51=DRAUGHTING_PRE_DEFINED_CURVE_FONT('continuous');
#52=PRESENTATION_STYLE_ASSIGNMENT((#53,#58));
#53=SURFACE_STYLE_USAGE(.BOTH.,#54);
#54=SURFACE_SIDE_STYLE('',(#55));
#55=SURFACE_STYLE_FILL_AREA(#56);
#56=FILL_AREA_STYLE('',(#57));
#57=FILL_AREA_STYLE_COLOUR('',#59);
#58=CURVE_STYLE('',#60,POSITIVE_LENGTH_MEASURE(0.1),#59);
#59=COLOUR_RGB('Pin1Axial',0.98,0.706,0.176);
#60=DRAUGHTING_PRE_DEFINED_CURVE_FONT('continuous');
#61=PRESENTATION_STYLE_ASSIGNMENT((#62,#67));
#62=SURFACE_STYLE_USAGE(.BOTH.,#63);
#63=SURFACE_SIDE_STYLE('',(#64));
#64=SURFACE_STYLE_FILL_AREA(#65);
#65=FILL_AREA_STYLE('',(#66));
#66=FILL_AREA_STYLE_COLOUR('',#68);
#67=CURVE_STYLE('',#69,POSITIVE_LENGTH_MEASURE(0.1),#68);
#68=COLOUR_RGB('HeatTab',0.588,0.588,0.588);
#69=DRAUGHTING_PRE_DEFINED_CURVE_FONT('continuous');
#70=PRESENTATION_STYLE_ASSIGNMENT((#71,#76));
#71=SURFACE_STYLE_USAGE(.BOTH.,#72);
#72=SURFACE_SIDE_STYLE('',(#73));
#73=SURFACE_STYLE_FILL_AREA(#74);
#74=FILL_AREA_STYLE('',(#75));
#75=FILL_AREA_STYLE_COLOUR('',#77);
#76=CURVE_STYLE('',#78,POSITIVE_LENGTH_MEASURE(0.1),#77);
#77=COLOUR_RGB('Gold',0.843,0.686,0.0);
#78=DRAUGHTING_PRE_DEFINED_CURVE_FONT('continuous');
#79=PRESENTATION_STYLE_ASSIGNMENT((#80,#85));
#80=SURFACE_STYLE_USAGE(.BOTH.,#81);
#81=SURFACE_SIDE_STYLE('',(#82));
#82=SURFACE_STYLE_FILL_AREA(#83);
#83=FILL_AREA_STYLE('',(#84));
#84=FILL_AREA_STYLE_COLOUR('',#86);
#85=CURVE_STYLE('',#87,POSITIVE_LENGTH_MEASURE(0.1),#86);
#86=COLOUR_RGB('Brown',0.459,0.345,0.176);
#87=DRAUGHTING_PRE_DEFINED_CURVE_FONT('continuous');
#88=PRESENTATION_STYLE_ASSIGNMENT((#89,#94));
#89=SURFACE_STYLE_USAGE(.BOTH.,#90);
#90=SURFACE_SIDE_STYLE('',(#91));
#91=SURFACE_STYLE_FILL_AREA(#92);
#92=FILL_AREA_STYLE('',(#93));
#93=FILL_AREA_STYLE_COLOUR('',#95);
#94=CURVE_STYLE('',#96,POSITIVE_LENGTH_MEASURE(0.1),#95);
#95=COLOUR_RGB('Tan',0.784,0.686,0.51);
#96=DRAUGHTING_PRE_DEFINED_CURVE_FONT('continuous');
#97=PRESENTATION_STYLE_ASSIGNMENT((#98,#103));
#98=SURFACE_STYLE_USAGE(.BOTH.,#99);
#99=SURFACE_SIDE_STYLE('',(#100));
#100=SURFACE_STYLE_FILL_AREA(#101);
#101=FILL_AREA_STYLE('',(#102));
#102=FILL_AREA_STYLE_COLOUR('',#104);
#103=CURVE_STYLE('',#105,POSITIVE_LENGTH_MEASURE(0.1),#104);
#104=COLOUR_RGB('Gray',0.431,0.431,0.431);
#105=DRAUGHTING_PRE_DEFINED_CURVE_FONT('continuous');
#106=PRESENTATION_STYLE_ASSIGNMENT((#107,#112));
#107=SURFACE_STYLE_USAGE(.BOTH.,#108);
#108=SURFACE_SIDE_STYLE('',(#109));
#109=SURFACE_STYLE_FILL_AREA(#110);
#110=FILL_AREA_STYLE('',(#111));
#111=FILL_AREA_STYLE_COLOUR('',#113);
#112=CURVE_STYLE('',#114,POSITIVE_LENGTH_MEASURE(0.1),#113);
#113=COLOUR_RGB('Red',0.6,0.0,0.0);
#114=DRAUGHTING_PRE_DEFINED_CURVE_FONT('continuous');
#115=PRESENTATION_STYLE_ASSIGNMENT((#116,#121));
#116=SURFACE_STYLE_USAGE(.BOTH.,#117);
#117=SURFACE_SIDE_STYLE('',(#118));
#118=SURFACE_STYLE_FILL_AREA(#119);
#119=FILL_AREA_STYLE('',(#120));
#120=FILL_AREA_STYLE_COLOUR('',#122);
#121=CURVE_STYLE('',#123,POSITIVE_LENGTH_MEASURE(0.1),#122);
#122=COLOUR_RGB('Blue',0.157,0.157,0.588);
#123=DRAUGHTING_PRE_DEFINED_CURVE_FONT('continuous');
#124=PRESENTATION_STYLE_ASSIGNMENT((#125,#130));
#125=SURFACE_STYLE_USAGE(.BOTH.,#126);
#126=SURFACE_SIDE_STYLE('',(#127));
#127=SURFACE_STYLE_FILL_AREA(#128);
#128=FILL_AREA_STYLE('',(#129));
#129=FILL_AREA_STYLE_COLOUR('',#131);
#130=CURVE_STYLE('',#132,POSITIVE_LENGTH_MEASURE(0.1),#131);
#131=COLOUR_RGB('Maroon',0.294,0.0,0.0);
#132=DRAUGHTING_PRE_DEFINED_CURVE_FONT('continuous');
#133=PRESENTATION_STYLE_ASSIGNMENT((#134,#139));
#134=SURFACE_STYLE_USAGE(.BOTH.,#135);
#135=SURFACE_SIDE_STYLE('',(#136));
#136=SURFACE_STYLE_FILL_AREA(#137);
#137=FILL_AREA_STYLE('',(#138));
#138=FILL_AREA_STYLE_COLOUR('',#140);
#139=CURVE_STYLE('',#141,POSITIVE_LENGTH_MEASURE(0.1),#140);
#140=COLOUR_RGB('Green',0.0,0.294,0.0);
#141=DRAUGHTING_PRE_DEFINED_CURVE_FONT('continuous');
#142=PRESENTATION_STYLE_ASSIGNMENT((#143,#148));
#143=SURFACE_STYLE_USAGE(.BOTH.,#144);
#144=SURFACE_SIDE_STYLE('',(#145));
#145=SURFACE_STYLE_FILL_AREA(#146);
#146=FILL_AREA_STYLE('',(#147));
#147=FILL_AREA_STYLE_COLOUR('',#149);
#148=CURVE_STYLE('',#150,POSITIVE_LENGTH_MEASURE(0.1),#149);
#149=COLOUR_RGB('Pin1',0.588,0.588,0.059);
#150=DRAUGHTING_PRE_DEFINED_CURVE_FONT('continuous');
#151=PRESENTATION_STYLE_ASSIGNMENT((#152,#157));
#152=SURFACE_STYLE_USAGE(.BOTH.,#153);
#153=SURFACE_SIDE_STYLE('',(#154));
#154=SURFACE_STYLE_FILL_AREA(#155);
#155=FILL_AREA_STYLE('',(#156));
#156=FILL_AREA_STYLE_COLOUR('',#158);
#157=CURVE_STYLE('',#159,POSITIVE_LENGTH_MEASURE(0.1),#158);
#158=COLOUR_RGB('Pin1Wrap',0.98,0.706,0.176);
#159=DRAUGHTING_PRE_DEFINED_CURVE_FONT('continuous');
#160=PRESENTATION_STYLE_ASSIGNMENT((#161,#166));
#161=SURFACE_STYLE_USAGE(.BOTH.,#162);
#162=SURFACE_SIDE_STYLE('',(#163));
#163=SURFACE_STYLE_FILL_AREA(#164);
#164=FILL_AREA_STYLE('',(#165));
#165=FILL_AREA_STYLE_COLOUR('',#167);
#166=CURVE_STYLE('',#168,POSITIVE_LENGTH_MEASURE(0.1),#167);
#167=COLOUR_RGB('Pin1Rad',0.588,0.588,0.588);
#168=DRAUGHTING_PRE_DEFINED_CURVE_FONT('continuous');
#169=PRESENTATION_STYLE_ASSIGNMENT((#170,#175));
#170=SURFACE_STYLE_USAGE(.BOTH.,#171);
#171=SURFACE_SIDE_STYLE('',(#172));
#172=SURFACE_STYLE_FILL_AREA(#173);
#173=FILL_AREA_STYLE('',(#174));
#174=FILL_AREA_STYLE_COLOUR('',#176);
#175=CURVE_STYLE('',#177,POSITIVE_LENGTH_MEASURE(0.1),#176);
#176=COLOUR_RGB('Pin1Tant',0.459,0.345,0.176);
#177=DRAUGHTING_PRE_DEFINED_CURVE_FONT('continuous');
#178=PRESENTATION_STYLE_ASSIGNMENT((#179,#184));
#179=SURFACE_STYLE_USAGE(.BOTH.,#180);
#180=SURFACE_SIDE_STYLE('',(#181));
#181=SURFACE_STYLE_FILL_AREA(#182);
#182=FILL_AREA_STYLE('',(#183));
#183=FILL_AREA_STYLE_COLOUR('',#185);
#184=CURVE_STYLE('',#186,POSITIVE_LENGTH_MEASURE(0.1),#185);
#185=COLOUR_RGB('Shroud',0.235,0.235,0.235);
#186=DRAUGHTING_PRE_DEFINED_CURVE_FONT('continuous');
#188=MANIFOLD_SOLID_BREP($,#189);
#189=CLOSED_SHELL('',(#191,#240,#293,#324));
#190=STYLED_ITEM('',(#43),#191);
#191=ADVANCED_FACE('',(#197),#192,.T.);
#192=PLANE('',#193);
#193=AXIS2_PLACEMENT_3D('',#194,#195,#196);
#194=CARTESIAN_POINT('',(-1.099,0.19,0.0));
#195=DIRECTION('',(0.0,-1.0,0.0));
#196=DIRECTION('',(0.,0.,1.));
#197=FACE_OUTER_BOUND('',#198,.T.);
#198=EDGE_LOOP('',(#199,#209,#219,#229));
#202=CARTESIAN_POINT('',(3.639,0.19,0.0));
#201=VERTEX_POINT('',#202);
#204=CARTESIAN_POINT('',(-1.099,0.19,0.0));
#203=VERTEX_POINT('',#204);
#200=EDGE_CURVE('',#201,#203,#205,.T.);
#205=LINE('',#202,#207);
#207=VECTOR('',#208,4.73830855896912);
#208=DIRECTION('',(-1.0,0.0,0.0));
#199=ORIENTED_EDGE('',*,*,#200,.F.);
#212=CARTESIAN_POINT('',(3.639,0.19,5.334));
#211=VERTEX_POINT('',#212);
#210=EDGE_CURVE('',#211,#201,#215,.T.);
#215=LINE('',#212,#217);
#217=VECTOR('',#218,5.334);
#218=DIRECTION('',(0.0,0.0,-1.0));
#209=ORIENTED_EDGE('',*,*,#210,.F.);
#222=CARTESIAN_POINT('',(-1.099,0.19,5.334));
#221=VERTEX_POINT('',#222);
#220=EDGE_CURVE('',#221,#211,#225,.T.);
#225=LINE('',#222,#227);
#227=VECTOR('',#228,4.73830855896912);
#228=DIRECTION('',(1.0,0.0,0.0));
#219=ORIENTED_EDGE('',*,*,#220,.F.);
#230=EDGE_CURVE('',#203,#221,#235,.T.);
#235=LINE('',#204,#237);
#237=VECTOR('',#238,5.334);
#238=DIRECTION('',(0.0,0.0,1.0));
#229=ORIENTED_EDGE('',*,*,#230,.F.);
#239=STYLED_ITEM('color',(#43),#240);
#240=ADVANCED_FACE($,(#246),#241,.T.);
#241=CYLINDRICAL_SURFACE($,#242,2.6035);
#242=AXIS2_PLACEMENT_3D($,#243,#244,#245);
#243=CARTESIAN_POINT('',(1.27,1.27,0.0));
#244=DIRECTION('',(0.,0.,1.));
#245=DIRECTION('',(0.,1.,0.));
#246=FACE_OUTER_BOUND($,#247,.T.);
#247=EDGE_LOOP($,(#270, #248, #280, #259));
#270=ORIENTED_EDGE('',*,*,#230,.T.);
#249=EDGE_CURVE($,#211,#221,#254,.T.);
#254=CIRCLE($,#255,2.6035);
#256=CARTESIAN_POINT('',(1.27,1.27,5.334));
#255=AXIS2_PLACEMENT_3D($,#256,#257,#258);
#257=DIRECTION('',(0.0,0.0,1.0));
#258=DIRECTION('',(-1.0,0.0,0.0));
#248=ORIENTED_EDGE('',*,*,#249,.F.);
#280=ORIENTED_EDGE('',*,*,#210,.T.);
#260=EDGE_CURVE($,#203,#201,#265,.T.);
#265=CIRCLE($,#266,2.6035);
#267=CARTESIAN_POINT('',(1.27,1.27,0.0));
#266=AXIS2_PLACEMENT_3D($,#267,#268,#269);
#268=DIRECTION('',(0.0,0.0,-1.0));
#269=DIRECTION('',(1.0,0.0,0.0));
#259=ORIENTED_EDGE('',*,*,#260,.F.);
#292=STYLED_ITEM('color',(#43),#293);
#293=ADVANCED_FACE($,(#299),#294,.T.);
#294=PLANE($,#295);
#295=AXIS2_PLACEMENT_3D($,#296,#297,#298);
#296=CARTESIAN_POINT('',(1.27,1.27,5.334));
#297=DIRECTION('',(0.,0.,1.));
#298=DIRECTION('',(1.,0.,0.));
#299=FACE_OUTER_BOUND($,#300,.T.);
#300=EDGE_LOOP($,(#301, #312));
#301=ORIENTED_EDGE('',*,*,#220,.T.);
#312=ORIENTED_EDGE('',*,*,#249,.T.);
#323=STYLED_ITEM('color',(#43),#324);
#324=ADVANCED_FACE($,(#330),#325,.T.);
#325=PLANE($,#326);
#326=AXIS2_PLACEMENT_3D($,#327,#328,#329);
#327=CARTESIAN_POINT('',(1.27,1.27,0.0));
#328=DIRECTION('',(0.,0.,-1.));
#329=DIRECTION('',(-1.,0.,0.));
#330=FACE_OUTER_BOUND($,#331,.T.);
#331=EDGE_LOOP($,(#332, #343));
#332=ORIENTED_EDGE('',*,*,#200,.T.);
#343=ORIENTED_EDGE('',*,*,#260,.T.);
#355=MANIFOLD_SOLID_BREP($,#356);
#356=CLOSED_SHELL('',(#358,#389,#420,#473,#526,#579,#632,#685,#738,#791,#844,#897));
#357=STYLED_ITEM('color',(#34),#358);
#358=ADVANCED_FACE($,(#364),#359,.T.);
#359=PLANE($,#360);
#360=AXIS2_PLACEMENT_3D($,#361,#362,#363);
#361=CARTESIAN_POINT('',(2.54,0.394,0.0));
#362=DIRECTION('',(0.,0.,1.));
#363=DIRECTION('',(0.,1.,0.));
#364=FACE_OUTER_BOUND($,#365,.T.);
#365=EDGE_LOOP($,(#366, #377));
#369=CARTESIAN_POINT('',(2.54,0.749,0.0));
#368=VERTEX_POINT('',#369);
#371=CARTESIAN_POINT('',(2.54,0.038,0.0));
#370=VERTEX_POINT('',#371);
#367=EDGE_CURVE($,#368,#370,#372,.T.);
#372=CIRCLE($,#373,0.3556);
#374=CARTESIAN_POINT('',(2.54,0.394,0.0));
#373=AXIS2_PLACEMENT_3D($,#374,#375,#376);
#375=DIRECTION('',(0.0,0.0,-1.0));
#376=DIRECTION('',(0.0,-1.0,0.0));
#366=ORIENTED_EDGE('',*,*,#367,.F.);
#378=EDGE_CURVE($,#370,#368,#383,.T.);
#383=CIRCLE($,#384,0.3556);
#384=AXIS2_PLACEMENT_3D($,#374,#386,#387);
#386=DIRECTION('',(0.0,0.0,-1.0));
#387=DIRECTION('',(0.0,1.0,0.0));
#377=ORIENTED_EDGE('',*,*,#378,.F.);
#388=STYLED_ITEM('color',(#34),#389);
#389=ADVANCED_FACE($,(#395),#390,.T.);
#390=PLANE($,#391);
#391=AXIS2_PLACEMENT_3D($,#392,#393,#394);
#392=CARTESIAN_POINT('',(2.54,0.0,-5.385));
#393=DIRECTION('',(0.,0.,-1.));
#394=DIRECTION('',(0.,1.,0.));
#395=FACE_OUTER_BOUND($,#396,.T.);
#396=EDGE_LOOP($,(#397, #408));
#400=CARTESIAN_POINT('',(2.54,0.356,-5.385));
#399=VERTEX_POINT('',#400);
#402=CARTESIAN_POINT('',(2.54,-0.356,-5.385));
#401=VERTEX_POINT('',#402);
#398=EDGE_CURVE($,#399,#401,#403,.T.);
#403=CIRCLE($,#404,0.3556);
#405=CARTESIAN_POINT('',(2.54,0.0,-5.385));
#404=AXIS2_PLACEMENT_3D($,#405,#406,#407);
#406=DIRECTION('',(0.0,0.0,1.0));
#407=DIRECTION('',(0.0,-1.0,0.0));
#397=ORIENTED_EDGE('',*,*,#398,.F.);
#409=EDGE_CURVE($,#401,#399,#414,.T.);
#414=CIRCLE($,#415,0.3556);
#415=AXIS2_PLACEMENT_3D($,#405,#417,#418);
#417=DIRECTION('',(0.0,0.0,1.0));
#418=DIRECTION('',(0.0,1.0,0.0));
#408=ORIENTED_EDGE('',*,*,#409,.F.);
#419=STYLED_ITEM('color',(#34),#420);
#420=ADVANCED_FACE($,(#426),#421,.T.);
#421=CYLINDRICAL_SURFACE($,#422,0.3556);
#422=AXIS2_PLACEMENT_3D($,#423,#424,#425);
#423=CARTESIAN_POINT('',(2.54,0.394,-0.284));
#424=DIRECTION('',(0.,0.,1.));
#425=DIRECTION('',(1.0,0.0,0.0));
#426=FACE_OUTER_BOUND($,#427,.T.);
#427=EDGE_LOOP($,(#450, #428, #460, #439));
#453=CARTESIAN_POINT('',(2.54,0.749,-0.284));
#452=VERTEX_POINT('',#453);
#451=EDGE_CURVE('',#452,#368,#456,.T.);
#456=LINE('',#453,#458);
#458=VECTOR('',#459,0.28448);
#459=DIRECTION('',(0.0,0.0,1.0));
#450=ORIENTED_EDGE('',*,*,#451,.F.);
#431=CARTESIAN_POINT('',(2.54,0.038,-0.284));
#430=VERTEX_POINT('',#431);
#429=EDGE_CURVE($,#430,#452,#434,.T.);
#434=CIRCLE($,#435,0.3556);
#436=CARTESIAN_POINT('',(2.54,0.394,-0.284));
#435=AXIS2_PLACEMENT_3D($,#436,#437,#438);
#437=DIRECTION('',(0.0,0.0,-1.0));
#438=DIRECTION('',(0.0,1.0,0.0));
#428=ORIENTED_EDGE('',*,*,#429,.F.);
#461=EDGE_CURVE('',#370,#430,#466,.T.);
#466=LINE('',#371,#468);
#468=VECTOR('',#469,0.28448);
#469=DIRECTION('',(0.0,0.0,-1.0));
#460=ORIENTED_EDGE('',*,*,#461,.F.);
#439=ORIENTED_EDGE('',*,*,#378,.T.);
#472=STYLED_ITEM('color',(#34),#473);
#473=ADVANCED_FACE($,(#479),#474,.T.);
#474=CYLINDRICAL_SURFACE($,#475,0.3556);
#475=AXIS2_PLACEMENT_3D($,#476,#477,#478);
#476=CARTESIAN_POINT('',(2.54,0.394,-0.284));
#477=DIRECTION('',(0.,0.,1.));
#478=DIRECTION('',(1.0,0.0,0.0));
#479=FACE_OUTER_BOUND($,#480,.T.);
#480=EDGE_LOOP($,(#503, #481, #513, #492));
#503=ORIENTED_EDGE('',*,*,#461,.T.);
#482=EDGE_CURVE($,#452,#430,#487,.T.);
#487=CIRCLE($,#488,0.3556);
#488=AXIS2_PLACEMENT_3D($,#436,#490,#491);
#490=DIRECTION('',(0.0,0.0,-1.0));
#491=DIRECTION('',(0.0,-1.0,0.0));
#481=ORIENTED_EDGE('',*,*,#482,.F.);
#513=ORIENTED_EDGE('',*,*,#451,.T.);
#492=ORIENTED_EDGE('',*,*,#367,.T.);
#525=STYLED_ITEM('color',(#34),#526);
#526=ADVANCED_FACE($,(#532),#527,.T.);
#527=CYLINDRICAL_SURFACE($,#528,0.3556);
#528=AXIS2_PLACEMENT_3D($,#529,#530,#531);
#529=CARTESIAN_POINT('',(2.54,0.0,-5.385));
#530=DIRECTION('',(0.,0.,1.));
#531=DIRECTION('',(1.0,0.0,0.0));
#532=FACE_OUTER_BOUND($,#533,.T.);
#533=EDGE_LOOP($,(#556, #534, #566, #545));
#561=CARTESIAN_POINT('',(2.54,0.356,-2.845));
#560=VERTEX_POINT('',#561);
#557=EDGE_CURVE('',#399,#560,#562,.T.);
#562=LINE('',#400,#564);
#564=VECTOR('',#565,2.54);
#565=DIRECTION('',(0.0,0.0,1.0));
#556=ORIENTED_EDGE('',*,*,#557,.F.);
#534=ORIENTED_EDGE('',*,*,#398,.T.);
#569=CARTESIAN_POINT('',(2.54,-0.356,-2.845));
#568=VERTEX_POINT('',#569);
#567=EDGE_CURVE('',#568,#401,#572,.T.);
#572=LINE('',#569,#574);
#574=VECTOR('',#575,2.54);
#575=DIRECTION('',(0.0,0.0,-1.0));
#566=ORIENTED_EDGE('',*,*,#567,.F.);
#546=EDGE_CURVE($,#560,#568,#551,.T.);
#551=CIRCLE($,#552,0.3556);
#553=CARTESIAN_POINT('',(2.54,0.0,-2.845));
#552=AXIS2_PLACEMENT_3D($,#553,#554,#555);
#554=DIRECTION('',(0.0,0.0,1.0));
#555=DIRECTION('',(0.0,-1.0,0.0));
#545=ORIENTED_EDGE('',*,*,#546,.F.);
#578=STYLED_ITEM('color',(#34),#579);
#579=ADVANCED_FACE($,(#585),#580,.T.);
#580=CYLINDRICAL_SURFACE($,#581,0.3556);
#581=AXIS2_PLACEMENT_3D($,#582,#583,#584);
#582=CARTESIAN_POINT('',(2.54,0.0,-5.385));
#583=DIRECTION('',(0.,0.,1.));
#584=DIRECTION('',(1.0,0.0,0.0));
#585=FACE_OUTER_BOUND($,#586,.T.);
#586=EDGE_LOOP($,(#609, #587, #619, #598));
#609=ORIENTED_EDGE('',*,*,#567,.T.);
#587=ORIENTED_EDGE('',*,*,#409,.T.);
#619=ORIENTED_EDGE('',*,*,#557,.T.);
#599=EDGE_CURVE($,#568,#560,#604,.T.);
#604=CIRCLE($,#605,0.3556);
#605=AXIS2_PLACEMENT_3D($,#553,#607,#608);
#607=DIRECTION('',(0.0,0.0,1.0));
#608=DIRECTION('',(0.0,1.0,0.0));
#598=ORIENTED_EDGE('',*,*,#599,.F.);
#631=STYLED_ITEM('color',(#34),#632);
#632=ADVANCED_FACE($,(#638),#633,.T.);
#633=CYLINDRICAL_SURFACE($,#634,0.3556);
#634=AXIS2_PLACEMENT_3D($,#635,#636,#637);
#635=CARTESIAN_POINT('',(2.54,0.01,-2.728));
#636=DIRECTION('',(0.0,0.159,0.987));
#637=DIRECTION('',(1.0,0.0,0.0));
#638=FACE_OUTER_BOUND($,#639,.T.);
#639=EDGE_LOOP($,(#662, #640, #672, #651));
#665=CARTESIAN_POINT('',(2.54,0.36,-2.786));
#664=VERTEX_POINT('',#665);
#667=CARTESIAN_POINT('',(2.54,0.735,-0.46));
#666=VERTEX_POINT('',#667);
#663=EDGE_CURVE('',#664,#666,#668,.T.);
#668=LINE('',#665,#670);
#670=VECTOR('',#671,2.35687711119485);
#671=DIRECTION('',(0.0,0.159,0.987));
#662=ORIENTED_EDGE('',*,*,#663,.F.);
#643=CARTESIAN_POINT('',(2.54,-0.341,-2.67));
#642=VERTEX_POINT('',#643);
#641=EDGE_CURVE($,#642,#664,#646,.T.);
#646=CIRCLE($,#647,0.3556);
#648=CARTESIAN_POINT('',(2.54,0.01,-2.728));
#647=AXIS2_PLACEMENT_3D($,#648,#649,#650);
#649=DIRECTION('',(0.0,-0.159,-0.987));
#650=DIRECTION('',(0.0,0.986,-0.164));
#640=ORIENTED_EDGE('',*,*,#641,.F.);
#675=CARTESIAN_POINT('',(2.54,0.033,-0.343));
#674=VERTEX_POINT('',#675);
#673=EDGE_CURVE('',#674,#642,#678,.T.);
#678=LINE('',#675,#680);
#680=VECTOR('',#681,2.35687711119485);
#681=DIRECTION('',(0.0,-0.159,-0.987));
#672=ORIENTED_EDGE('',*,*,#673,.F.);
#652=EDGE_CURVE($,#666,#674,#657,.T.);
#657=CIRCLE($,#658,0.3556);
#659=CARTESIAN_POINT('',(2.54,0.384,-0.401));
#658=AXIS2_PLACEMENT_3D($,#659,#660,#661);
#660=DIRECTION('',(0.0,0.159,0.987));
#661=DIRECTION('',(0.0,-0.986,0.164));
#651=ORIENTED_EDGE('',*,*,#652,.F.);
#684=STYLED_ITEM('color',(#34),#685);
#685=ADVANCED_FACE($,(#691),#686,.T.);
#686=CYLINDRICAL_SURFACE($,#687,0.3556);
#687=AXIS2_PLACEMENT_3D($,#688,#689,#690);
#688=CARTESIAN_POINT('',(2.54,0.01,-2.728));
#689=DIRECTION('',(0.0,0.159,0.987));
#690=DIRECTION('',(1.0,0.0,0.0));
#691=FACE_OUTER_BOUND($,#692,.T.);
#692=EDGE_LOOP($,(#715, #693, #725, #704));
#715=ORIENTED_EDGE('',*,*,#673,.T.);
#694=EDGE_CURVE($,#664,#642,#699,.T.);
#699=CIRCLE($,#700,0.3556);
#700=AXIS2_PLACEMENT_3D($,#648,#702,#703);
#702=DIRECTION('',(0.0,-0.159,-0.987));
#703=DIRECTION('',(0.0,-0.986,0.164));
#693=ORIENTED_EDGE('',*,*,#694,.F.);
#725=ORIENTED_EDGE('',*,*,#663,.T.);
#705=EDGE_CURVE($,#674,#666,#710,.T.);
#710=CIRCLE($,#711,0.3556);
#711=AXIS2_PLACEMENT_3D($,#659,#713,#714);
#713=DIRECTION('',(0.0,0.159,0.987));
#714=DIRECTION('',(0.0,-0.986,0.164));
#704=ORIENTED_EDGE('',*,*,#705,.F.);
#737=STYLED_ITEM('color',(#34),#738);
#738 = ADVANCED_FACE ( '', ( #744 ), #739, .T. ) ;
#739 = TOROIDAL_SURFACE ( '', #740, 0.7112, 0.3556 ) ;
#740 = AXIS2_PLACEMENT_3D ( '', #741, #742, #743 ) ;
#741 = CARTESIAN_POINT ( '',  ( 2.54,-0.317,-0.284 ) ) ;
#742 = DIRECTION ( '',  ( -1.0,0.0,0.0 ) ) ;
#743 = DIRECTION ( '',  ( 0.0000000000000000000, 0.0000000000000000000, -1.000000000000000000 ) ) ;
#744 = FACE_OUTER_BOUND ( '', #745, .T. ) ;
#745 = EDGE_LOOP ( '', ( #746, #757, #768, #779 ) ) ;
#746=ORIENTED_EDGE('',*,*,#429,.T.);
#758=EDGE_CURVE($,#666,#452,#763,.T.);
#763=CIRCLE($,#764,1.0668);
#765=CARTESIAN_POINT('',(2.54,-0.317,-0.284));
#764=AXIS2_PLACEMENT_3D($,#765,#766,#767);
#766=DIRECTION('',(1.0,0.0,0.0));
#767=DIRECTION('',(0.0,0.0,1.0));
#757=ORIENTED_EDGE('',*,*,#758,.F.);
#768=ORIENTED_EDGE('',*,*,#652,.T.);
#780=EDGE_CURVE($,#430,#674,#785,.T.);
#785=CIRCLE($,#786,0.3556);
#786=AXIS2_PLACEMENT_3D($,#765,#788,#789);
#788=DIRECTION('',(-1.0,0.0,0.0));
#789=DIRECTION('',(0.0,0.0,1.0));
#779=ORIENTED_EDGE('',*,*,#780,.F.);
#790=STYLED_ITEM('color',(#34),#791);
#791 = ADVANCED_FACE ( '', ( #797 ), #792, .T. ) ;
#792 = TOROIDAL_SURFACE ( '', #793, 0.7112, 0.3556 ) ;
#793 = AXIS2_PLACEMENT_3D ( '', #794, #795, #796 ) ;
#794 = CARTESIAN_POINT ( '',  ( 2.54,-0.317,-0.284 ) ) ;
#795 = DIRECTION ( '',  ( 1.0,0.0,0.0 ) ) ;
#796 = DIRECTION ( '',  ( 0.0000000000000000000, 0.0000000000000000000, 1.000000000000000000 ) ) ;
#797 = FACE_OUTER_BOUND ( '', #798, .T. ) ;
#798 = EDGE_LOOP ( '', ( #799, #810, #821, #832 ) ) ;
#799=ORIENTED_EDGE('',*,*,#482,.T.);
#810=ORIENTED_EDGE('',*,*,#780,.T.);
#821=ORIENTED_EDGE('',*,*,#705,.T.);
#832=ORIENTED_EDGE('',*,*,#758,.T.);
#843=STYLED_ITEM('color',(#34),#844);
#844 = ADVANCED_FACE ( '', ( #850 ), #845, .T. ) ;
#845 = TOROIDAL_SURFACE ( '', #846, 0.7112, 0.3556 ) ;
#846 = AXIS2_PLACEMENT_3D ( '', #847, #848, #849 ) ;
#847 = CARTESIAN_POINT ( '',  ( 2.54,0.711,-2.845 ) ) ;
#848 = DIRECTION ( '',  ( 1.0,0.0,0.0 ) ) ;
#849 = DIRECTION ( '',  ( 0.0000000000000000000, 0.0000000000000000000, 1.000000000000000000 ) ) ;
#850 = FACE_OUTER_BOUND ( '', #851, .T. ) ;
#851 = EDGE_LOOP ( '', ( #852, #863, #874, #885 ) ) ;
#852=ORIENTED_EDGE('',*,*,#694,.T.);
#864=EDGE_CURVE($,#568,#642,#869,.T.);
#869=CIRCLE($,#870,1.0668);
#871=CARTESIAN_POINT('',(2.54,0.711,-2.845));
#870=AXIS2_PLACEMENT_3D($,#871,#872,#873);
#872=DIRECTION('',(-1.0,0.0,0.0));
#873=DIRECTION('',(0.0,0.0,1.0));
#863=ORIENTED_EDGE('',*,*,#864,.F.);
#874=ORIENTED_EDGE('',*,*,#599,.T.);
#886=EDGE_CURVE($,#664,#560,#891,.T.);
#891=CIRCLE($,#892,0.3556);
#892=AXIS2_PLACEMENT_3D($,#871,#894,#895);
#894=DIRECTION('',(1.0,0.0,0.0));
#895=DIRECTION('',(0.0,0.0,1.0));
#885=ORIENTED_EDGE('',*,*,#886,.F.);
#896=STYLED_ITEM('color',(#34),#897);
#897 = ADVANCED_FACE ( '', ( #903 ), #898, .T. ) ;
#898 = TOROIDAL_SURFACE ( '', #899, 0.7112, 0.3556 ) ;
#899 = AXIS2_PLACEMENT_3D ( '', #900, #901, #902 ) ;
#900 = CARTESIAN_POINT ( '',  ( 2.54,0.711,-2.845 ) ) ;
#901 = DIRECTION ( '',  ( -1.0,0.0,0.0 ) ) ;
#902 = DIRECTION ( '',  ( 0.0000000000000000000, 0.0000000000000000000, 1.000000000000000000 ) ) ;
#903 = FACE_OUTER_BOUND ( '', #904, .T. ) ;
#904 = EDGE_LOOP ( '', ( #905, #916, #927, #938 ) ) ;
#905=ORIENTED_EDGE('',*,*,#641,.T.);
#916=ORIENTED_EDGE('',*,*,#886,.T.);
#927=ORIENTED_EDGE('',*,*,#546,.T.);
#938=ORIENTED_EDGE('',*,*,#864,.T.);
#949=MANIFOLD_SOLID_BREP($,#950);
#950=CLOSED_SHELL('',(#952,#983,#1014,#1067,#1120,#1173,#1226,#1279,#1332,#1385,#1438,#1491));
#951=STYLED_ITEM('color',(#34),#952);
#952=ADVANCED_FACE($,(#958),#953,.T.);
#953=PLANE($,#954);
#954=AXIS2_PLACEMENT_3D($,#955,#956,#957);
#955=CARTESIAN_POINT('',(0.0,0.394,0.0));
#956=DIRECTION('',(0.,0.,1.));
#957=DIRECTION('',(0.,1.,0.));
#958=FACE_OUTER_BOUND($,#959,.T.);
#959=EDGE_LOOP($,(#960, #971));
#963=CARTESIAN_POINT('',(0.0,0.749,0.0));
#962=VERTEX_POINT('',#963);
#965=CARTESIAN_POINT('',(0.0,0.038,0.0));
#964=VERTEX_POINT('',#965);
#961=EDGE_CURVE($,#962,#964,#966,.T.);
#966=CIRCLE($,#967,0.3556);
#968=CARTESIAN_POINT('',(0.0,0.394,0.0));
#967=AXIS2_PLACEMENT_3D($,#968,#969,#970);
#969=DIRECTION('',(0.0,0.0,-1.0));
#970=DIRECTION('',(0.0,-1.0,0.0));
#960=ORIENTED_EDGE('',*,*,#961,.F.);
#972=EDGE_CURVE($,#964,#962,#977,.T.);
#977=CIRCLE($,#978,0.3556);
#978=AXIS2_PLACEMENT_3D($,#968,#980,#981);
#980=DIRECTION('',(0.0,0.0,-1.0));
#981=DIRECTION('',(0.0,1.0,0.0));
#971=ORIENTED_EDGE('',*,*,#972,.F.);
#982=STYLED_ITEM('color',(#34),#983);
#983=ADVANCED_FACE($,(#989),#984,.T.);
#984=PLANE($,#985);
#985=AXIS2_PLACEMENT_3D($,#986,#987,#988);
#986=CARTESIAN_POINT('',(0.0,0.0,-5.385));
#987=DIRECTION('',(0.,0.,-1.));
#988=DIRECTION('',(0.,1.,0.));
#989=FACE_OUTER_BOUND($,#990,.T.);
#990=EDGE_LOOP($,(#991, #1002));
#994=CARTESIAN_POINT('',(0.0,0.356,-5.385));
#993=VERTEX_POINT('',#994);
#996=CARTESIAN_POINT('',(0.0,-0.356,-5.385));
#995=VERTEX_POINT('',#996);
#992=EDGE_CURVE($,#993,#995,#997,.T.);
#997=CIRCLE($,#998,0.3556);
#999=CARTESIAN_POINT('',(0.0,0.0,-5.385));
#998=AXIS2_PLACEMENT_3D($,#999,#1000,#1001);
#1000=DIRECTION('',(0.0,0.0,1.0));
#1001=DIRECTION('',(0.0,-1.0,0.0));
#991=ORIENTED_EDGE('',*,*,#992,.F.);
#1003=EDGE_CURVE($,#995,#993,#1008,.T.);
#1008=CIRCLE($,#1009,0.3556);
#1009=AXIS2_PLACEMENT_3D($,#999,#1011,#1012);
#1011=DIRECTION('',(0.0,0.0,1.0));
#1012=DIRECTION('',(0.0,1.0,0.0));
#1002=ORIENTED_EDGE('',*,*,#1003,.F.);
#1013=STYLED_ITEM('color',(#34),#1014);
#1014=ADVANCED_FACE($,(#1020),#1015,.T.);
#1015=CYLINDRICAL_SURFACE($,#1016,0.3556);
#1016=AXIS2_PLACEMENT_3D($,#1017,#1018,#1019);
#1017=CARTESIAN_POINT('',(0.0,0.394,-0.284));
#1018=DIRECTION('',(0.,0.,1.));
#1019=DIRECTION('',(1.0,0.0,0.0));
#1020=FACE_OUTER_BOUND($,#1021,.T.);
#1021=EDGE_LOOP($,(#1044, #1022, #1054, #1033));
#1047=CARTESIAN_POINT('',(0.0,0.749,-0.284));
#1046=VERTEX_POINT('',#1047);
#1045=EDGE_CURVE('',#1046,#962,#1050,.T.);
#1050=LINE('',#1047,#1052);
#1052=VECTOR('',#1053,0.28448);
#1053=DIRECTION('',(0.0,0.0,1.0));
#1044=ORIENTED_EDGE('',*,*,#1045,.F.);
#1025=CARTESIAN_POINT('',(0.0,0.038,-0.284));
#1024=VERTEX_POINT('',#1025);
#1023=EDGE_CURVE($,#1024,#1046,#1028,.T.);
#1028=CIRCLE($,#1029,0.3556);
#1030=CARTESIAN_POINT('',(0.0,0.394,-0.284));
#1029=AXIS2_PLACEMENT_3D($,#1030,#1031,#1032);
#1031=DIRECTION('',(0.0,0.0,-1.0));
#1032=DIRECTION('',(0.0,1.0,0.0));
#1022=ORIENTED_EDGE('',*,*,#1023,.F.);
#1055=EDGE_CURVE('',#964,#1024,#1060,.T.);
#1060=LINE('',#965,#1062);
#1062=VECTOR('',#1063,0.28448);
#1063=DIRECTION('',(0.0,0.0,-1.0));
#1054=ORIENTED_EDGE('',*,*,#1055,.F.);
#1033=ORIENTED_EDGE('',*,*,#972,.T.);
#1066=STYLED_ITEM('color',(#34),#1067);
#1067=ADVANCED_FACE($,(#1073),#1068,.T.);
#1068=CYLINDRICAL_SURFACE($,#1069,0.3556);
#1069=AXIS2_PLACEMENT_3D($,#1070,#1071,#1072);
#1070=CARTESIAN_POINT('',(0.0,0.394,-0.284));
#1071=DIRECTION('',(0.,0.,1.));
#1072=DIRECTION('',(1.0,0.0,0.0));
#1073=FACE_OUTER_BOUND($,#1074,.T.);
#1074=EDGE_LOOP($,(#1097, #1075, #1107, #1086));
#1097=ORIENTED_EDGE('',*,*,#1055,.T.);
#1076=EDGE_CURVE($,#1046,#1024,#1081,.T.);
#1081=CIRCLE($,#1082,0.3556);
#1082=AXIS2_PLACEMENT_3D($,#1030,#1084,#1085);
#1084=DIRECTION('',(0.0,0.0,-1.0));
#1085=DIRECTION('',(0.0,-1.0,0.0));
#1075=ORIENTED_EDGE('',*,*,#1076,.F.);
#1107=ORIENTED_EDGE('',*,*,#1045,.T.);
#1086=ORIENTED_EDGE('',*,*,#961,.T.);
#1119=STYLED_ITEM('color',(#34),#1120);
#1120=ADVANCED_FACE($,(#1126),#1121,.T.);
#1121=CYLINDRICAL_SURFACE($,#1122,0.3556);
#1122=AXIS2_PLACEMENT_3D($,#1123,#1124,#1125);
#1123=CARTESIAN_POINT('',(0.0,0.0,-5.385));
#1124=DIRECTION('',(0.,0.,1.));
#1125=DIRECTION('',(1.0,0.0,0.0));
#1126=FACE_OUTER_BOUND($,#1127,.T.);
#1127=EDGE_LOOP($,(#1150, #1128, #1160, #1139));
#1155=CARTESIAN_POINT('',(0.0,0.356,-2.845));
#1154=VERTEX_POINT('',#1155);
#1151=EDGE_CURVE('',#993,#1154,#1156,.T.);
#1156=LINE('',#994,#1158);
#1158=VECTOR('',#1159,2.54);
#1159=DIRECTION('',(0.0,0.0,1.0));
#1150=ORIENTED_EDGE('',*,*,#1151,.F.);
#1128=ORIENTED_EDGE('',*,*,#992,.T.);
#1163=CARTESIAN_POINT('',(0.0,-0.356,-2.845));
#1162=VERTEX_POINT('',#1163);
#1161=EDGE_CURVE('',#1162,#995,#1166,.T.);
#1166=LINE('',#1163,#1168);
#1168=VECTOR('',#1169,2.54);
#1169=DIRECTION('',(0.0,0.0,-1.0));
#1160=ORIENTED_EDGE('',*,*,#1161,.F.);
#1140=EDGE_CURVE($,#1154,#1162,#1145,.T.);
#1145=CIRCLE($,#1146,0.3556);
#1147=CARTESIAN_POINT('',(0.0,0.0,-2.845));
#1146=AXIS2_PLACEMENT_3D($,#1147,#1148,#1149);
#1148=DIRECTION('',(0.0,0.0,1.0));
#1149=DIRECTION('',(0.0,-1.0,0.0));
#1139=ORIENTED_EDGE('',*,*,#1140,.F.);
#1172=STYLED_ITEM('color',(#34),#1173);
#1173=ADVANCED_FACE($,(#1179),#1174,.T.);
#1174=CYLINDRICAL_SURFACE($,#1175,0.3556);
#1175=AXIS2_PLACEMENT_3D($,#1176,#1177,#1178);
#1176=CARTESIAN_POINT('',(0.0,0.0,-5.385));
#1177=DIRECTION('',(0.,0.,1.));
#1178=DIRECTION('',(1.0,0.0,0.0));
#1179=FACE_OUTER_BOUND($,#1180,.T.);
#1180=EDGE_LOOP($,(#1203, #1181, #1213, #1192));
#1203=ORIENTED_EDGE('',*,*,#1161,.T.);
#1181=ORIENTED_EDGE('',*,*,#1003,.T.);
#1213=ORIENTED_EDGE('',*,*,#1151,.T.);
#1193=EDGE_CURVE($,#1162,#1154,#1198,.T.);
#1198=CIRCLE($,#1199,0.3556);
#1199=AXIS2_PLACEMENT_3D($,#1147,#1201,#1202);
#1201=DIRECTION('',(0.0,0.0,1.0));
#1202=DIRECTION('',(0.0,1.0,0.0));
#1192=ORIENTED_EDGE('',*,*,#1193,.F.);
#1225=STYLED_ITEM('color',(#34),#1226);
#1226=ADVANCED_FACE($,(#1232),#1227,.T.);
#1227=CYLINDRICAL_SURFACE($,#1228,0.3556);
#1228=AXIS2_PLACEMENT_3D($,#1229,#1230,#1231);
#1229=CARTESIAN_POINT('',(0.0,0.01,-2.728));
#1230=DIRECTION('',(0.0,0.159,0.987));
#1231=DIRECTION('',(1.0,0.0,0.0));
#1232=FACE_OUTER_BOUND($,#1233,.T.);
#1233=EDGE_LOOP($,(#1256, #1234, #1266, #1245));
#1259=CARTESIAN_POINT('',(0.0,0.36,-2.786));
#1258=VERTEX_POINT('',#1259);
#1261=CARTESIAN_POINT('',(0.0,0.735,-0.46));
#1260=VERTEX_POINT('',#1261);
#1257=EDGE_CURVE('',#1258,#1260,#1262,.T.);
#1262=LINE('',#1259,#1264);
#1264=VECTOR('',#1265,2.35687711119485);
#1265=DIRECTION('',(0.0,0.159,0.987));
#1256=ORIENTED_EDGE('',*,*,#1257,.F.);
#1237=CARTESIAN_POINT('',(0.0,-0.341,-2.67));
#1236=VERTEX_POINT('',#1237);
#1235=EDGE_CURVE($,#1236,#1258,#1240,.T.);
#1240=CIRCLE($,#1241,0.3556);
#1242=CARTESIAN_POINT('',(0.0,0.01,-2.728));
#1241=AXIS2_PLACEMENT_3D($,#1242,#1243,#1244);
#1243=DIRECTION('',(0.0,-0.159,-0.987));
#1244=DIRECTION('',(0.0,0.986,-0.164));
#1234=ORIENTED_EDGE('',*,*,#1235,.F.);
#1269=CARTESIAN_POINT('',(0.0,0.033,-0.343));
#1268=VERTEX_POINT('',#1269);
#1267=EDGE_CURVE('',#1268,#1236,#1272,.T.);
#1272=LINE('',#1269,#1274);
#1274=VECTOR('',#1275,2.35687711119485);
#1275=DIRECTION('',(0.0,-0.159,-0.987));
#1266=ORIENTED_EDGE('',*,*,#1267,.F.);
#1246=EDGE_CURVE($,#1260,#1268,#1251,.T.);
#1251=CIRCLE($,#1252,0.3556);
#1253=CARTESIAN_POINT('',(0.0,0.384,-0.401));
#1252=AXIS2_PLACEMENT_3D($,#1253,#1254,#1255);
#1254=DIRECTION('',(0.0,0.159,0.987));
#1255=DIRECTION('',(0.0,-0.986,0.164));
#1245=ORIENTED_EDGE('',*,*,#1246,.F.);
#1278=STYLED_ITEM('color',(#34),#1279);
#1279=ADVANCED_FACE($,(#1285),#1280,.T.);
#1280=CYLINDRICAL_SURFACE($,#1281,0.3556);
#1281=AXIS2_PLACEMENT_3D($,#1282,#1283,#1284);
#1282=CARTESIAN_POINT('',(0.0,0.01,-2.728));
#1283=DIRECTION('',(0.0,0.159,0.987));
#1284=DIRECTION('',(1.0,0.0,0.0));
#1285=FACE_OUTER_BOUND($,#1286,.T.);
#1286=EDGE_LOOP($,(#1309, #1287, #1319, #1298));
#1309=ORIENTED_EDGE('',*,*,#1267,.T.);
#1288=EDGE_CURVE($,#1258,#1236,#1293,.T.);
#1293=CIRCLE($,#1294,0.3556);
#1294=AXIS2_PLACEMENT_3D($,#1242,#1296,#1297);
#1296=DIRECTION('',(0.0,-0.159,-0.987));
#1297=DIRECTION('',(0.0,-0.986,0.164));
#1287=ORIENTED_EDGE('',*,*,#1288,.F.);
#1319=ORIENTED_EDGE('',*,*,#1257,.T.);
#1299=EDGE_CURVE($,#1268,#1260,#1304,.T.);
#1304=CIRCLE($,#1305,0.3556);
#1305=AXIS2_PLACEMENT_3D($,#1253,#1307,#1308);
#1307=DIRECTION('',(0.0,0.159,0.987));
#1308=DIRECTION('',(0.0,-0.986,0.164));
#1298=ORIENTED_EDGE('',*,*,#1299,.F.);
#1331=STYLED_ITEM('color',(#34),#1332);
#1332 = ADVANCED_FACE ( '', ( #1338 ), #1333, .T. ) ;
#1333 = TOROIDAL_SURFACE ( '', #1334, 0.7112, 0.3556 ) ;
#1334 = AXIS2_PLACEMENT_3D ( '', #1335, #1336, #1337 ) ;
#1335 = CARTESIAN_POINT ( '',  ( 0.0,-0.317,-0.284 ) ) ;
#1336 = DIRECTION ( '',  ( -1.0,0.0,0.0 ) ) ;
#1337 = DIRECTION ( '',  ( 0.0000000000000000000, 0.0000000000000000000, -1.000000000000000000 ) ) ;
#1338 = FACE_OUTER_BOUND ( '', #1339, .T. ) ;
#1339 = EDGE_LOOP ( '', ( #1340, #1351, #1362, #1373 ) ) ;
#1340=ORIENTED_EDGE('',*,*,#1023,.T.);
#1352=EDGE_CURVE($,#1260,#1046,#1357,.T.);
#1357=CIRCLE($,#1358,1.0668);
#1359=CARTESIAN_POINT('',(0.0,-0.317,-0.284));
#1358=AXIS2_PLACEMENT_3D($,#1359,#1360,#1361);
#1360=DIRECTION('',(1.0,0.0,0.0));
#1361=DIRECTION('',(0.0,0.0,1.0));
#1351=ORIENTED_EDGE('',*,*,#1352,.F.);
#1362=ORIENTED_EDGE('',*,*,#1246,.T.);
#1374=EDGE_CURVE($,#1024,#1268,#1379,.T.);
#1379=CIRCLE($,#1380,0.3556);
#1380=AXIS2_PLACEMENT_3D($,#1359,#1382,#1383);
#1382=DIRECTION('',(-1.0,0.0,0.0));
#1383=DIRECTION('',(0.0,0.0,1.0));
#1373=ORIENTED_EDGE('',*,*,#1374,.F.);
#1384=STYLED_ITEM('color',(#34),#1385);
#1385 = ADVANCED_FACE ( '', ( #1391 ), #1386, .T. ) ;
#1386 = TOROIDAL_SURFACE ( '', #1387, 0.7112, 0.3556 ) ;
#1387 = AXIS2_PLACEMENT_3D ( '', #1388, #1389, #1390 ) ;
#1388 = CARTESIAN_POINT ( '',  ( 0.0,-0.317,-0.284 ) ) ;
#1389 = DIRECTION ( '',  ( 1.0,0.0,0.0 ) ) ;
#1390 = DIRECTION ( '',  ( 0.0000000000000000000, 0.0000000000000000000, 1.000000000000000000 ) ) ;
#1391 = FACE_OUTER_BOUND ( '', #1392, .T. ) ;
#1392 = EDGE_LOOP ( '', ( #1393, #1404, #1415, #1426 ) ) ;
#1393=ORIENTED_EDGE('',*,*,#1076,.T.);
#1404=ORIENTED_EDGE('',*,*,#1374,.T.);
#1415=ORIENTED_EDGE('',*,*,#1299,.T.);
#1426=ORIENTED_EDGE('',*,*,#1352,.T.);
#1437=STYLED_ITEM('color',(#34),#1438);
#1438 = ADVANCED_FACE ( '', ( #1444 ), #1439, .T. ) ;
#1439 = TOROIDAL_SURFACE ( '', #1440, 0.7112, 0.3556 ) ;
#1440 = AXIS2_PLACEMENT_3D ( '', #1441, #1442, #1443 ) ;
#1441 = CARTESIAN_POINT ( '',  ( 0.0,0.711,-2.845 ) ) ;
#1442 = DIRECTION ( '',  ( 1.0,0.0,0.0 ) ) ;
#1443 = DIRECTION ( '',  ( 0.0000000000000000000, 0.0000000000000000000, 1.000000000000000000 ) ) ;
#1444 = FACE_OUTER_BOUND ( '', #1445, .T. ) ;
#1445 = EDGE_LOOP ( '', ( #1446, #1457, #1468, #1479 ) ) ;
#1446=ORIENTED_EDGE('',*,*,#1288,.T.);
#1458=EDGE_CURVE($,#1162,#1236,#1463,.T.);
#1463=CIRCLE($,#1464,1.0668);
#1465=CARTESIAN_POINT('',(0.0,0.711,-2.845));
#1464=AXIS2_PLACEMENT_3D($,#1465,#1466,#1467);
#1466=DIRECTION('',(-1.0,0.0,0.0));
#1467=DIRECTION('',(0.0,0.0,1.0));
#1457=ORIENTED_EDGE('',*,*,#1458,.F.);
#1468=ORIENTED_EDGE('',*,*,#1193,.T.);
#1480=EDGE_CURVE($,#1258,#1154,#1485,.T.);
#1485=CIRCLE($,#1486,0.3556);
#1486=AXIS2_PLACEMENT_3D($,#1465,#1488,#1489);
#1488=DIRECTION('',(1.0,0.0,0.0));
#1489=DIRECTION('',(0.0,0.0,1.0));
#1479=ORIENTED_EDGE('',*,*,#1480,.F.);
#1490=STYLED_ITEM('color',(#34),#1491);
#1491 = ADVANCED_FACE ( '', ( #1497 ), #1492, .T. ) ;
#1492 = TOROIDAL_SURFACE ( '', #1493, 0.7112, 0.3556 ) ;
#1493 = AXIS2_PLACEMENT_3D ( '', #1494, #1495, #1496 ) ;
#1494 = CARTESIAN_POINT ( '',  ( 0.0,0.711,-2.845 ) ) ;
#1495 = DIRECTION ( '',  ( -1.0,0.0,0.0 ) ) ;
#1496 = DIRECTION ( '',  ( 0.0000000000000000000, 0.0000000000000000000, 1.000000000000000000 ) ) ;
#1497 = FACE_OUTER_BOUND ( '', #1498, .T. ) ;
#1498 = EDGE_LOOP ( '', ( #1499, #1510, #1521, #1532 ) ) ;
#1499=ORIENTED_EDGE('',*,*,#1235,.T.);
#1510=ORIENTED_EDGE('',*,*,#1480,.T.);
#1521=ORIENTED_EDGE('',*,*,#1140,.T.);
#1532=ORIENTED_EDGE('',*,*,#1458,.T.);
#1543=MANIFOLD_SOLID_BREP($,#1544);
#1544=CLOSED_SHELL('',(#1546,#1577,#1608,#1661,#1714,#1767,#1820,#1873,#1926,#1979,#2032,#2085));
#1545=STYLED_ITEM('color',(#34),#1546);
#1546=ADVANCED_FACE($,(#1552),#1547,.T.);
#1547=PLANE($,#1548);
#1548=AXIS2_PLACEMENT_3D($,#1549,#1550,#1551);
#1549=CARTESIAN_POINT('',(1.27,0.394,0.0));
#1550=DIRECTION('',(0.,0.,1.));
#1551=DIRECTION('',(0.,1.,0.));
#1552=FACE_OUTER_BOUND($,#1553,.T.);
#1553=EDGE_LOOP($,(#1554, #1565));
#1557=CARTESIAN_POINT('',(1.27,0.038,0.0));
#1556=VERTEX_POINT('',#1557);
#1559=CARTESIAN_POINT('',(1.27,0.749,0.0));
#1558=VERTEX_POINT('',#1559);
#1555=EDGE_CURVE($,#1556,#1558,#1560,.T.);
#1560=CIRCLE($,#1561,0.3556);
#1562=CARTESIAN_POINT('',(1.27,0.394,0.0));
#1561=AXIS2_PLACEMENT_3D($,#1562,#1563,#1564);
#1563=DIRECTION('',(0.0,0.0,-1.0));
#1564=DIRECTION('',(0.0,1.0,0.0));
#1554=ORIENTED_EDGE('',*,*,#1555,.F.);
#1566=EDGE_CURVE($,#1558,#1556,#1571,.T.);
#1571=CIRCLE($,#1572,0.3556);
#1572=AXIS2_PLACEMENT_3D($,#1562,#1574,#1575);
#1574=DIRECTION('',(0.0,0.0,-1.0));
#1575=DIRECTION('',(0.0,-1.0,0.0));
#1565=ORIENTED_EDGE('',*,*,#1566,.F.);
#1576=STYLED_ITEM('color',(#34),#1577);
#1577=ADVANCED_FACE($,(#1583),#1578,.T.);
#1578=PLANE($,#1579);
#1579=AXIS2_PLACEMENT_3D($,#1580,#1581,#1582);
#1580=CARTESIAN_POINT('',(1.27,2.54,-5.385));
#1581=DIRECTION('',(0.,0.,-1.));
#1582=DIRECTION('',(0.,1.,0.));
#1583=FACE_OUTER_BOUND($,#1584,.T.);
#1584=EDGE_LOOP($,(#1585, #1596));
#1588=CARTESIAN_POINT('',(1.27,2.184,-5.385));
#1587=VERTEX_POINT('',#1588);
#1590=CARTESIAN_POINT('',(1.27,2.896,-5.385));
#1589=VERTEX_POINT('',#1590);
#1586=EDGE_CURVE($,#1587,#1589,#1591,.T.);
#1591=CIRCLE($,#1592,0.3556);
#1593=CARTESIAN_POINT('',(1.27,2.54,-5.385));
#1592=AXIS2_PLACEMENT_3D($,#1593,#1594,#1595);
#1594=DIRECTION('',(0.0,0.0,1.0));
#1595=DIRECTION('',(0.0,1.0,0.0));
#1585=ORIENTED_EDGE('',*,*,#1586,.F.);
#1597=EDGE_CURVE($,#1589,#1587,#1602,.T.);
#1602=CIRCLE($,#1603,0.3556);
#1603=AXIS2_PLACEMENT_3D($,#1593,#1605,#1606);
#1605=DIRECTION('',(0.0,0.0,1.0));
#1606=DIRECTION('',(0.0,-1.0,0.0));
#1596=ORIENTED_EDGE('',*,*,#1597,.F.);
#1607=STYLED_ITEM('color',(#34),#1608);
#1608=ADVANCED_FACE($,(#1614),#1609,.T.);
#1609=CYLINDRICAL_SURFACE($,#1610,0.3556);
#1610=AXIS2_PLACEMENT_3D($,#1611,#1612,#1613);
#1611=CARTESIAN_POINT('',(1.27,0.394,-0.284));
#1612=DIRECTION('',(0.,0.,1.));
#1613=DIRECTION('',(-1.0,0.0,0.0));
#1614=FACE_OUTER_BOUND($,#1615,.T.);
#1615=EDGE_LOOP($,(#1638, #1616, #1648, #1627));
#1641=CARTESIAN_POINT('',(1.27,0.038,-0.284));
#1640=VERTEX_POINT('',#1641);
#1639=EDGE_CURVE('',#1640,#1556,#1644,.T.);
#1644=LINE('',#1641,#1646);
#1646=VECTOR('',#1647,0.28448);
#1647=DIRECTION('',(0.0,0.0,1.0));
#1638=ORIENTED_EDGE('',*,*,#1639,.F.);
#1619=CARTESIAN_POINT('',(1.27,0.749,-0.284));
#1618=VERTEX_POINT('',#1619);
#1617=EDGE_CURVE($,#1618,#1640,#1622,.T.);
#1622=CIRCLE($,#1623,0.3556);
#1624=CARTESIAN_POINT('',(1.27,0.394,-0.284));
#1623=AXIS2_PLACEMENT_3D($,#1624,#1625,#1626);
#1625=DIRECTION('',(0.0,0.0,-1.0));
#1626=DIRECTION('',(0.0,-1.0,0.0));
#1616=ORIENTED_EDGE('',*,*,#1617,.F.);
#1649=EDGE_CURVE('',#1558,#1618,#1654,.T.);
#1654=LINE('',#1559,#1656);
#1656=VECTOR('',#1657,0.28448);
#1657=DIRECTION('',(0.0,0.0,-1.0));
#1648=ORIENTED_EDGE('',*,*,#1649,.F.);
#1627=ORIENTED_EDGE('',*,*,#1566,.T.);
#1660=STYLED_ITEM('color',(#34),#1661);
#1661=ADVANCED_FACE($,(#1667),#1662,.T.);
#1662=CYLINDRICAL_SURFACE($,#1663,0.3556);
#1663=AXIS2_PLACEMENT_3D($,#1664,#1665,#1666);
#1664=CARTESIAN_POINT('',(1.27,0.394,-0.284));
#1665=DIRECTION('',(0.,0.,1.));
#1666=DIRECTION('',(-1.0,0.0,0.0));
#1667=FACE_OUTER_BOUND($,#1668,.T.);
#1668=EDGE_LOOP($,(#1691, #1669, #1701, #1680));
#1691=ORIENTED_EDGE('',*,*,#1649,.T.);
#1670=EDGE_CURVE($,#1640,#1618,#1675,.T.);
#1675=CIRCLE($,#1676,0.3556);
#1676=AXIS2_PLACEMENT_3D($,#1624,#1678,#1679);
#1678=DIRECTION('',(0.0,0.0,-1.0));
#1679=DIRECTION('',(0.0,1.0,0.0));
#1669=ORIENTED_EDGE('',*,*,#1670,.F.);
#1701=ORIENTED_EDGE('',*,*,#1639,.T.);
#1680=ORIENTED_EDGE('',*,*,#1555,.T.);
#1713=STYLED_ITEM('color',(#34),#1714);
#1714=ADVANCED_FACE($,(#1720),#1715,.T.);
#1715=CYLINDRICAL_SURFACE($,#1716,0.3556);
#1716=AXIS2_PLACEMENT_3D($,#1717,#1718,#1719);
#1717=CARTESIAN_POINT('',(1.27,2.54,-5.385));
#1718=DIRECTION('',(0.,0.,1.));
#1719=DIRECTION('',(-1.0,0.0,0.0));
#1720=FACE_OUTER_BOUND($,#1721,.T.);
#1721=EDGE_LOOP($,(#1744, #1722, #1754, #1733));
#1749=CARTESIAN_POINT('',(1.27,2.184,-2.845));
#1748=VERTEX_POINT('',#1749);
#1745=EDGE_CURVE('',#1587,#1748,#1750,.T.);
#1750=LINE('',#1588,#1752);
#1752=VECTOR('',#1753,2.54);
#1753=DIRECTION('',(0.0,0.0,1.0));
#1744=ORIENTED_EDGE('',*,*,#1745,.F.);
#1722=ORIENTED_EDGE('',*,*,#1586,.T.);
#1757=CARTESIAN_POINT('',(1.27,2.896,-2.845));
#1756=VERTEX_POINT('',#1757);
#1755=EDGE_CURVE('',#1756,#1589,#1760,.T.);
#1760=LINE('',#1757,#1762);
#1762=VECTOR('',#1763,2.54);
#1763=DIRECTION('',(0.0,0.0,-1.0));
#1754=ORIENTED_EDGE('',*,*,#1755,.F.);
#1734=EDGE_CURVE($,#1748,#1756,#1739,.T.);
#1739=CIRCLE($,#1740,0.3556);
#1741=CARTESIAN_POINT('',(1.27,2.54,-2.845));
#1740=AXIS2_PLACEMENT_3D($,#1741,#1742,#1743);
#1742=DIRECTION('',(0.0,0.0,1.0));
#1743=DIRECTION('',(0.0,1.0,0.0));
#1733=ORIENTED_EDGE('',*,*,#1734,.F.);
#1766=STYLED_ITEM('color',(#34),#1767);
#1767=ADVANCED_FACE($,(#1773),#1768,.T.);
#1768=CYLINDRICAL_SURFACE($,#1769,0.3556);
#1769=AXIS2_PLACEMENT_3D($,#1770,#1771,#1772);
#1770=CARTESIAN_POINT('',(1.27,2.54,-5.385));
#1771=DIRECTION('',(0.,0.,1.));
#1772=DIRECTION('',(-1.0,0.0,0.0));
#1773=FACE_OUTER_BOUND($,#1774,.T.);
#1774=EDGE_LOOP($,(#1797, #1775, #1807, #1786));
#1797=ORIENTED_EDGE('',*,*,#1755,.T.);
#1775=ORIENTED_EDGE('',*,*,#1597,.T.);
#1807=ORIENTED_EDGE('',*,*,#1745,.T.);
#1787=EDGE_CURVE($,#1756,#1748,#1792,.T.);
#1792=CIRCLE($,#1793,0.3556);
#1793=AXIS2_PLACEMENT_3D($,#1741,#1795,#1796);
#1795=DIRECTION('',(0.0,0.0,1.0));
#1796=DIRECTION('',(0.0,-1.0,0.0));
#1786=ORIENTED_EDGE('',*,*,#1787,.F.);
#1819=STYLED_ITEM('color',(#34),#1820);
#1820=ADVANCED_FACE($,(#1826),#1821,.T.);
#1821=CYLINDRICAL_SURFACE($,#1822,0.3556);
#1822=AXIS2_PLACEMENT_3D($,#1823,#1824,#1825);
#1823=CARTESIAN_POINT('',(1.27,2.302,-2.314));
#1824=DIRECTION('',(0.0,-0.744,0.668));
#1825=DIRECTION('',(-1.0,0.0,0.0));
#1826=FACE_OUTER_BOUND($,#1827,.T.);
#1827=EDGE_LOOP($,(#1850, #1828, #1860, #1839));
#1853=CARTESIAN_POINT('',(1.27,2.065,-2.579));
#1852=VERTEX_POINT('',#1853);
#1855=CARTESIAN_POINT('',(1.27,0.396,-1.081));
#1854=VERTEX_POINT('',#1855);
#1851=EDGE_CURVE('',#1852,#1854,#1856,.T.);
#1856=LINE('',#1853,#1858);
#1858=VECTOR('',#1859,2.24312545200555);
#1859=DIRECTION('',(0.0,-0.744,0.668));
#1850=ORIENTED_EDGE('',*,*,#1851,.F.);
#1831=CARTESIAN_POINT('',(1.27,2.538,-2.048));
#1830=VERTEX_POINT('',#1831);
#1829=EDGE_CURVE($,#1830,#1852,#1834,.T.);
#1834=CIRCLE($,#1835,0.3556);
#1836=CARTESIAN_POINT('',(1.27,2.302,-2.314));
#1835=AXIS2_PLACEMENT_3D($,#1836,#1837,#1838);
#1837=DIRECTION('',(0.0,0.744,-0.668));
#1838=DIRECTION('',(0.0,-0.665,-0.747));
#1828=ORIENTED_EDGE('',*,*,#1829,.F.);
#1863=CARTESIAN_POINT('',(1.27,0.868,-0.55));
#1862=VERTEX_POINT('',#1863);
#1861=EDGE_CURVE('',#1862,#1830,#1866,.T.);
#1866=LINE('',#1863,#1868);
#1868=VECTOR('',#1869,2.24312545200555);
#1869=DIRECTION('',(0.0,0.744,-0.668));
#1860=ORIENTED_EDGE('',*,*,#1861,.F.);
#1840=EDGE_CURVE($,#1854,#1862,#1845,.T.);
#1845=CIRCLE($,#1846,0.3556);
#1847=CARTESIAN_POINT('',(1.27,0.632,-0.816));
#1846=AXIS2_PLACEMENT_3D($,#1847,#1848,#1849);
#1848=DIRECTION('',(0.0,-0.744,0.668));
#1849=DIRECTION('',(0.0,0.665,0.747));
#1839=ORIENTED_EDGE('',*,*,#1840,.F.);
#1872=STYLED_ITEM('color',(#34),#1873);
#1873=ADVANCED_FACE($,(#1879),#1874,.T.);
#1874=CYLINDRICAL_SURFACE($,#1875,0.3556);
#1875=AXIS2_PLACEMENT_3D($,#1876,#1877,#1878);
#1876=CARTESIAN_POINT('',(1.27,2.302,-2.314));
#1877=DIRECTION('',(0.0,-0.744,0.668));
#1878=DIRECTION('',(-1.0,0.0,0.0));
#1879=FACE_OUTER_BOUND($,#1880,.T.);
#1880=EDGE_LOOP($,(#1903, #1881, #1913, #1892));
#1903=ORIENTED_EDGE('',*,*,#1861,.T.);
#1882=EDGE_CURVE($,#1852,#1830,#1887,.T.);
#1887=CIRCLE($,#1888,0.3556);
#1888=AXIS2_PLACEMENT_3D($,#1836,#1890,#1891);
#1890=DIRECTION('',(0.0,0.744,-0.668));
#1891=DIRECTION('',(0.0,0.665,0.747));
#1881=ORIENTED_EDGE('',*,*,#1882,.F.);
#1913=ORIENTED_EDGE('',*,*,#1851,.T.);
#1893=EDGE_CURVE($,#1862,#1854,#1898,.T.);
#1898=CIRCLE($,#1899,0.3556);
#1899=AXIS2_PLACEMENT_3D($,#1847,#1901,#1902);
#1901=DIRECTION('',(0.0,-0.744,0.668));
#1902=DIRECTION('',(0.0,0.665,0.747));
#1892=ORIENTED_EDGE('',*,*,#1893,.F.);
#1925=STYLED_ITEM('color',(#34),#1926);
#1926 = ADVANCED_FACE ( '', ( #1932 ), #1927, .T. ) ;
#1927 = TOROIDAL_SURFACE ( '', #1928, 0.7112, 0.3556 ) ;
#1928 = AXIS2_PLACEMENT_3D ( '', #1929, #1930, #1931 ) ;
#1929 = CARTESIAN_POINT ( '',  ( 1.27,1.105,-0.284 ) ) ;
#1930 = DIRECTION ( '',  ( 1.0,0.0,0.0 ) ) ;
#1931 = DIRECTION ( '',  ( 0.0000000000000000000, 0.0000000000000000000, -1.000000000000000000 ) ) ;
#1932 = FACE_OUTER_BOUND ( '', #1933, .T. ) ;
#1933 = EDGE_LOOP ( '', ( #1934, #1945, #1956, #1967 ) ) ;
#1934=ORIENTED_EDGE('',*,*,#1617,.T.);
#1946=EDGE_CURVE($,#1854,#1640,#1951,.T.);
#1951=CIRCLE($,#1952,1.0668);
#1953=CARTESIAN_POINT('',(1.27,1.105,-0.284));
#1952=AXIS2_PLACEMENT_3D($,#1953,#1954,#1955);
#1954=DIRECTION('',(-1.0,0.0,0.0));
#1955=DIRECTION('',(0.0,0.0,1.0));
#1945=ORIENTED_EDGE('',*,*,#1946,.F.);
#1956=ORIENTED_EDGE('',*,*,#1840,.T.);
#1968=EDGE_CURVE($,#1618,#1862,#1973,.T.);
#1973=CIRCLE($,#1974,0.3556);
#1974=AXIS2_PLACEMENT_3D($,#1953,#1976,#1977);
#1976=DIRECTION('',(1.0,0.0,0.0));
#1977=DIRECTION('',(0.0,0.0,1.0));
#1967=ORIENTED_EDGE('',*,*,#1968,.F.);
#1978=STYLED_ITEM('color',(#34),#1979);
#1979 = ADVANCED_FACE ( '', ( #1985 ), #1980, .T. ) ;
#1980 = TOROIDAL_SURFACE ( '', #1981, 0.7112, 0.3556 ) ;
#1981 = AXIS2_PLACEMENT_3D ( '', #1982, #1983, #1984 ) ;
#1982 = CARTESIAN_POINT ( '',  ( 1.27,1.105,-0.284 ) ) ;
#1983 = DIRECTION ( '',  ( -1.0,0.0,0.0 ) ) ;
#1984 = DIRECTION ( '',  ( 0.0000000000000000000, 0.0000000000000000000, 1.000000000000000000 ) ) ;
#1985 = FACE_OUTER_BOUND ( '', #1986, .T. ) ;
#1986 = EDGE_LOOP ( '', ( #1987, #1998, #2009, #2020 ) ) ;
#1987=ORIENTED_EDGE('',*,*,#1670,.T.);
#1998=ORIENTED_EDGE('',*,*,#1968,.T.);
#2009=ORIENTED_EDGE('',*,*,#1893,.T.);
#2020=ORIENTED_EDGE('',*,*,#1946,.T.);
#2031=STYLED_ITEM('color',(#34),#2032);
#2032 = ADVANCED_FACE ( '', ( #2038 ), #2033, .T. ) ;
#2033 = TOROIDAL_SURFACE ( '', #2034, 0.7112, 0.3556 ) ;
#2034 = AXIS2_PLACEMENT_3D ( '', #2035, #2036, #2037 ) ;
#2035 = CARTESIAN_POINT ( '',  ( 1.27,1.829,-2.845 ) ) ;
#2036 = DIRECTION ( '',  ( -1.0,0.0,0.0 ) ) ;
#2037 = DIRECTION ( '',  ( 0.0000000000000000000, 0.0000000000000000000, 1.000000000000000000 ) ) ;
#2038 = FACE_OUTER_BOUND ( '', #2039, .T. ) ;
#2039 = EDGE_LOOP ( '', ( #2040, #2051, #2062, #2073 ) ) ;
#2040=ORIENTED_EDGE('',*,*,#1882,.T.);
#2052=EDGE_CURVE($,#1756,#1830,#2057,.T.);
#2057=CIRCLE($,#2058,1.0668);
#2059=CARTESIAN_POINT('',(1.27,1.829,-2.845));
#2058=AXIS2_PLACEMENT_3D($,#2059,#2060,#2061);
#2060=DIRECTION('',(1.0,0.0,0.0));
#2061=DIRECTION('',(0.0,0.0,1.0));
#2051=ORIENTED_EDGE('',*,*,#2052,.F.);
#2062=ORIENTED_EDGE('',*,*,#1787,.T.);
#2074=EDGE_CURVE($,#1852,#1748,#2079,.T.);
#2079=CIRCLE($,#2080,0.3556);
#2080=AXIS2_PLACEMENT_3D($,#2059,#2082,#2083);
#2082=DIRECTION('',(-1.0,0.0,0.0));
#2083=DIRECTION('',(0.0,0.0,1.0));
#2073=ORIENTED_EDGE('',*,*,#2074,.F.);
#2084=STYLED_ITEM('color',(#34),#2085);
#2085 = ADVANCED_FACE ( '', ( #2091 ), #2086, .T. ) ;
#2086 = TOROIDAL_SURFACE ( '', #2087, 0.7112, 0.3556 ) ;
#2087 = AXIS2_PLACEMENT_3D ( '', #2088, #2089, #2090 ) ;
#2088 = CARTESIAN_POINT ( '',  ( 1.27,1.829,-2.845 ) ) ;
#2089 = DIRECTION ( '',  ( 1.0,0.0,0.0 ) ) ;
#2090 = DIRECTION ( '',  ( 0.0000000000000000000, 0.0000000000000000000, 1.000000000000000000 ) ) ;
#2091 = FACE_OUTER_BOUND ( '', #2092, .T. ) ;
#2092 = EDGE_LOOP ( '', ( #2093, #2104, #2115, #2126 ) ) ;
#2093=ORIENTED_EDGE('',*,*,#1829,.T.);
#2104=ORIENTED_EDGE('',*,*,#2074,.T.);
#2115=ORIENTED_EDGE('',*,*,#1734,.T.);
#2126=ORIENTED_EDGE('',*,*,#2052,.T.);
ENDSEC;
END-ISO-10303-21;
